<svg xmlns="http://www.w3.org/2000/svg" width="1100" height="760" viewBox="0 0 1100 760" role="img" aria-label="Hoopoe on the slope">
  <defs>
    <linearGradient id="sky" x1="0" y1="0" x2="0" y2="1">
      <stop offset="0" stop-color="#E7B98C"/>
      <stop offset="1" stop-color="#9E6E7A"/>
    </linearGradient>
    <linearGradient id="vig" x1="0" y1="0" x2="0" y2="1">
      <stop offset="0.55" stop-color="#000" stop-opacity="0"/>
      <stop offset="1" stop-color="#000" stop-opacity="0.42"/>
    </linearGradient>
    <filter id="tone" color-interpolation-filters="sRGB">
      <feColorMatrix type="hueRotate" values="0"/>
      <feColorMatrix type="saturate" values="1.00"/>
    </filter>
  </defs>
  <g filter="url(#tone)">
    <rect width="1100" height="760" fill="url(#sky)"/>
    <path d="M0 471 L1100 471 L1100 760 L0 760 Z" fill="#33414A" opacity="0.92"/><path d="M0 511 Q275 441 550 501 T1100 481 L1100 760 L0 760 Z" fill="#000" opacity="0.16"/><circle cx="858" cy="167.2" r="46" fill="#C2622F" opacity="0.55"/><g fill="#1c2520" opacity="0.85"><ellipse cx="374" cy="465" rx="34" ry="22"/><circle cx="400" cy="451" r="14"/><path d="M408 447 L434 443 L410 457 Z" fill="#C2622F"/><path d="M344 461 Q314 457 326 479 Q360 471 374 465 Z"/></g>
  </g>
  <rect width="1100" height="760" fill="url(#vig)"/>
  <text x="44" y="676" font-family="Georgia, 'Times New Roman', serif" font-size="40" fill="#fff" opacity="0.96">Hoopoe on the slope</text>
  <text x="44" y="716" font-family="Georgia, serif" font-size="24" fill="#fff" opacity="0.72" letter-spacing="2">2020s</text>
</svg>