<svg xmlns="http://www.w3.org/2000/svg" width="1100" height="720" viewBox="0 0 1100 720" role="img" aria-label="A hoopoe on the slope at dusk">
  <defs>
    <linearGradient id="sky" x1="0" y1="0" x2="0" y2="1">
      <stop offset="0" stop-color="#E7B98C"/>
      <stop offset="1" stop-color="#9E6E7A"/>
    </linearGradient>
    <linearGradient id="vig" x1="0" y1="0" x2="0" y2="1">
      <stop offset="0.55" stop-color="#000" stop-opacity="0"/>
      <stop offset="1" stop-color="#000" stop-opacity="0.42"/>
    </linearGradient>
    <filter id="tone" color-interpolation-filters="sRGB">
      <feColorMatrix type="hueRotate" values="3"/>
      <feColorMatrix type="saturate" values="0.85"/>
    </filter>
  </defs>
  <g filter="url(#tone)">
    <rect width="1100" height="720" fill="url(#sky)"/>
    <path d="M0 446 L1100 446 L1100 720 L0 720 Z" fill="#33414A" opacity="0.92"/><path d="M0 486 Q275 416 550 476 T1100 456 L1100 720 L0 720 Z" fill="#000" opacity="0.16"/><circle cx="858" cy="158.4" r="46" fill="#C2622F" opacity="0.55"/><g fill="#1c2520" opacity="0.85"><ellipse cx="374" cy="440" rx="34" ry="22"/><circle cx="400" cy="426" r="14"/><path d="M408 422 L434 418 L410 432 Z" fill="#C2622F"/><path d="M344 436 Q314 432 326 454 Q360 446 374 440 Z"/></g>
  </g>
  <rect width="1100" height="720" fill="url(#vig)"/>
  <text x="44" y="636" font-family="Georgia, 'Times New Roman', serif" font-size="40" fill="#fff" opacity="0.96">A hoopoe on the slope at dusk</text>
  <text x="44" y="676" font-family="Georgia, serif" font-size="24" fill="#fff" opacity="0.72" letter-spacing="2">2020s</text>
</svg>